<svg xmlns="http://www.w3.org/2000/svg" width="1000" height="300" viewBox="0 0 1000 300" role="img" aria-label="Sohan Narewadi — GitHub profile" font-family="'Segoe UI', -apple-system, 'Helvetica Neue', Arial, sans-serif"><title>Sohan Narewadi — GitHub profile</title><defs><linearGradient id="aurora" x1="0" y1="0" x2="1" y2="1"><stop offset="0" stop-color="#5eead4"/><stop offset="1" stop-color="#7dd3fc"/></linearGradient><linearGradient id="base" x1="0" y1="0" x2="0" y2="1"><stop offset="0" stop-color="#161c26"/><stop offset="1" stop-color="#0f1419"/></linearGradient><radialGradient id="glowV" cx="0.12" cy="0.05" r="0.85"><stop offset="0" stop-color="#5eead4" stop-opacity="0.16"/><stop offset="1" stop-color="#5eead4" stop-opacity="0"/></radialGradient><radialGradient id="glowC" cx="0.95" cy="0.98" r="0.85"><stop offset="0" stop-color="#7dd3fc" stop-opacity="0.12"/><stop offset="1" stop-color="#7dd3fc" stop-opacity="0"/></radialGradient><filter id="blur" x="-50%" y="-50%" width="200%" height="200%"><feGaussianBlur stdDeviation="42"/></filter><clipPath id="clip"><rect width="1000" height="300" rx="26"/></clipPath></defs>
<g clip-path="url(#clip)">
<rect width="1000" height="300" fill="url(#base)"/>
<g filter="url(#blur)">
<ellipse cx="220" cy="90" rx="260" ry="90" fill="#5eead4" opacity="0.3"><animateTransform attributeName="transform" type="translate" values="0 0;90 30;0 0" dur="14s" repeatCount="indefinite"/></ellipse>
<ellipse cx="700" cy="60" rx="280" ry="80" fill="#7dd3fc" opacity="0.22"><animateTransform attributeName="transform" type="translate" values="0 0;-90 40;0 0" dur="18s" repeatCount="indefinite"/></ellipse>
<ellipse cx="520" cy="200" rx="300" ry="70" fill="#2f6f8f" opacity="0.4"><animateTransform attributeName="transform" type="translate" values="0 0;60 -30;0 0" dur="16s" repeatCount="indefinite"/></ellipse>
</g>
<path d="M0 240 q125 -26 250 0 t250 0 t250 0 t250 0 t250 0 t250 0 t250 0 t250 0 V310 H0 Z" fill="#0f1419" fill-opacity="0.45"><animateTransform attributeName="transform" type="translate" from="0 0" to="-500 0" dur="11s" repeatCount="indefinite"/></path>
<path d="M0 262 q125 -18 250 0 t250 0 t250 0 t250 0 t250 0 t250 0 t250 0 t250 0 V310 H0 Z" fill="#0f1419" fill-opacity="0.7"><animateTransform attributeName="transform" type="translate" from="0 0" to="-500 0" dur="7s" repeatCount="indefinite"/></path>
<text x="500" y="150" font-size="64" font-weight="700" fill="#f1f5f9" text-anchor="middle">Sohan Narewadi</text>
<rect x="440" y="168" width="120" height="3" rx="1.5" fill="url(#aurora)"/>
<text x="500" y="208" font-size="22" font-weight="400" fill="#a9bccd" text-anchor="middle" letter-spacing="3">@Sohan-Narewadi</text>
</g>
<rect x="0.5" y="0.5" width="999" height="299" rx="26" fill="none" stroke="url(#aurora)" stroke-opacity="0.7"/>
</svg>