<svg xmlns="http://www.w3.org/2000/svg" width="830" height="396" viewBox="0 0 830 396" role="img" aria-label="Tech stack" font-family="'Segoe UI', -apple-system, 'Helvetica Neue', Arial, sans-serif"><title>Tech stack</title><defs><linearGradient id="aurora" x1="0" y1="0" x2="1" y2="1"><stop offset="0" stop-color="#5eead4"/><stop offset="1" stop-color="#7dd3fc"/></linearGradient><linearGradient id="base" x1="0" y1="0" x2="0" y2="1"><stop offset="0" stop-color="#161c26"/><stop offset="1" stop-color="#0f1419"/></linearGradient><radialGradient id="glowV" cx="0.12" cy="0.05" r="0.85"><stop offset="0" stop-color="#5eead4" stop-opacity="0.16"/><stop offset="1" stop-color="#5eead4" stop-opacity="0"/></radialGradient><radialGradient id="glowC" cx="0.95" cy="0.98" r="0.85"><stop offset="0" stop-color="#7dd3fc" stop-opacity="0.12"/><stop offset="1" stop-color="#7dd3fc" stop-opacity="0"/></radialGradient></defs>
<rect width="830" height="396" rx="20" fill="url(#base)"/><rect width="830" height="396" rx="20" fill="url(#glowV)"/><rect width="830" height="396" rx="20" fill="url(#glowC)"/><rect x="0.5" y="0.5" width="829" height="395" rx="20" fill="none" stroke="url(#aurora)" stroke-opacity="0.45"/>
<text x="32" y="46" font-size="22" font-weight="700" fill="#f1f5f9" text-anchor="start">Tech stack</text>
<text x="32" y="78" font-size="12" font-weight="700" fill="#7d8a9c" text-anchor="start" letter-spacing="2">LANGUAGES</text>
<rect x="32" y="92" width="68" height="34" rx="17" fill="#5eead4" fill-opacity="0.14" stroke="#5eead4" stroke-opacity="0.65"/>
<text x="66" y="114" font-size="16" font-weight="500" fill="#f1f5f9" text-anchor="middle">Java</text>
<rect x="110" y="92" width="41" height="34" rx="17" fill="#5eead4" fill-opacity="0.14" stroke="#5eead4" stroke-opacity="0.65"/>
<text x="130.5" y="114" font-size="16" font-weight="500" fill="#f1f5f9" text-anchor="middle">C</text>
<rect x="161" y="92" width="116" height="34" rx="17" fill="#5eead4" fill-opacity="0.14" stroke="#5eead4" stroke-opacity="0.65"/>
<text x="219" y="114" font-size="16" font-weight="500" fill="#f1f5f9" text-anchor="middle">JavaScript</text>
<rect x="287" y="92" width="82" height="34" rx="17" fill="#5eead4" fill-opacity="0.14" stroke="#5eead4" stroke-opacity="0.65"/>
<text x="328" y="114" font-size="16" font-weight="500" fill="#f1f5f9" text-anchor="middle">Python</text>
<rect x="379" y="92" width="64" height="34" rx="17" fill="#5eead4" fill-opacity="0.14" stroke="#5eead4" stroke-opacity="0.65"/>
<text x="411" y="114" font-size="16" font-weight="500" fill="#f1f5f9" text-anchor="middle">Dart</text>
<rect x="453" y="92" width="74" height="34" rx="17" fill="#5eead4" fill-opacity="0.14" stroke="#5eead4" stroke-opacity="0.65"/>
<text x="490" y="114" font-size="16" font-weight="500" fill="#f1f5f9" text-anchor="middle">HTML</text>
<rect x="537" y="92" width="63" height="34" rx="17" fill="#5eead4" fill-opacity="0.14" stroke="#5eead4" stroke-opacity="0.65"/>
<text x="568.5" y="114" font-size="16" font-weight="500" fill="#f1f5f9" text-anchor="middle">CSS</text>
<text x="32" y="158" font-size="12" font-weight="700" fill="#7d8a9c" text-anchor="start" letter-spacing="2">WEB &amp; MOBILE</text>
<rect x="32" y="172" width="87" height="34" rx="17" fill="#7dd3fc" fill-opacity="0.14" stroke="#7dd3fc" stroke-opacity="0.65"/>
<text x="75.5" y="194" font-size="16" font-weight="500" fill="#f1f5f9" text-anchor="middle">Node.js</text>
<rect x="129" y="172" width="95" height="34" rx="17" fill="#7dd3fc" fill-opacity="0.14" stroke="#7dd3fc" stroke-opacity="0.65"/>
<text x="176.5" y="194" font-size="16" font-weight="500" fill="#f1f5f9" text-anchor="middle">Express</text>
<rect x="234" y="172" width="73" height="34" rx="17" fill="#7dd3fc" fill-opacity="0.14" stroke="#7dd3fc" stroke-opacity="0.65"/>
<text x="270.5" y="194" font-size="16" font-weight="500" fill="#f1f5f9" text-anchor="middle">React</text>
<rect x="317" y="172" width="84" height="34" rx="17" fill="#7dd3fc" fill-opacity="0.14" stroke="#7dd3fc" stroke-opacity="0.65"/>
<text x="359" y="194" font-size="16" font-weight="500" fill="#f1f5f9" text-anchor="middle">Next.js</text>
<rect x="411" y="172" width="97" height="34" rx="17" fill="#7dd3fc" fill-opacity="0.14" stroke="#7dd3fc" stroke-opacity="0.65"/>
<text x="459.5" y="194" font-size="16" font-weight="500" fill="#f1f5f9" text-anchor="middle">FastAPI</text>
<rect x="518" y="172" width="84" height="34" rx="17" fill="#7dd3fc" fill-opacity="0.14" stroke="#7dd3fc" stroke-opacity="0.65"/>
<text x="560" y="194" font-size="16" font-weight="500" fill="#f1f5f9" text-anchor="middle">Flutter</text>
<rect x="612" y="172" width="83" height="34" rx="17" fill="#7dd3fc" fill-opacity="0.14" stroke="#7dd3fc" stroke-opacity="0.65"/>
<text x="653.5" y="194" font-size="16" font-weight="500" fill="#f1f5f9" text-anchor="middle">MySQL</text>
<text x="32" y="238" font-size="12" font-weight="700" fill="#7d8a9c" text-anchor="start" letter-spacing="2">DATA &amp; ML</text>
<rect x="32" y="252" width="97" height="34" rx="17" fill="#94a3b8" fill-opacity="0.14" stroke="#94a3b8" stroke-opacity="0.65"/>
<text x="80.5" y="274" font-size="16" font-weight="500" fill="#f1f5f9" text-anchor="middle">PyTorch</text>
<rect x="139" y="252" width="94" height="34" rx="17" fill="#94a3b8" fill-opacity="0.14" stroke="#94a3b8" stroke-opacity="0.65"/>
<text x="186" y="274" font-size="16" font-weight="500" fill="#f1f5f9" text-anchor="middle">YOLOv8</text>
<rect x="243" y="252" width="143" height="34" rx="17" fill="#94a3b8" fill-opacity="0.14" stroke="#94a3b8" stroke-opacity="0.65"/>
<text x="314.5" y="274" font-size="16" font-weight="500" fill="#f1f5f9" text-anchor="middle">Random Forest</text>
<rect x="396" y="252" width="87" height="34" rx="17" fill="#94a3b8" fill-opacity="0.14" stroke="#94a3b8" stroke-opacity="0.65"/>
<text x="439.5" y="274" font-size="16" font-weight="500" fill="#f1f5f9" text-anchor="middle">Apriori</text>
<rect x="493" y="252" width="98" height="34" rx="17" fill="#94a3b8" fill-opacity="0.14" stroke="#94a3b8" stroke-opacity="0.65"/>
<text x="542" y="274" font-size="16" font-weight="500" fill="#f1f5f9" text-anchor="middle">Streamlit</text>
<rect x="601" y="252" width="91" height="34" rx="17" fill="#94a3b8" fill-opacity="0.14" stroke="#94a3b8" stroke-opacity="0.65"/>
<text x="646.5" y="274" font-size="16" font-weight="500" fill="#f1f5f9" text-anchor="middle">Jupyter</text>
<text x="32" y="318" font-size="12" font-weight="700" fill="#7d8a9c" text-anchor="start" letter-spacing="2">3D &amp; EMBEDDED</text>
<rect x="32" y="332" width="96" height="34" rx="17" fill="#5eead4" fill-opacity="0.14" stroke="#5eead4" stroke-opacity="0.65"/>
<text x="80" y="354" font-size="16" font-weight="500" fill="#f1f5f9" text-anchor="middle">Three.js</text>
<rect x="138" y="332" width="173" height="34" rx="17" fill="#5eead4" fill-opacity="0.14" stroke="#5eead4" stroke-opacity="0.65"/>
<text x="224.5" y="354" font-size="16" font-weight="500" fill="#f1f5f9" text-anchor="middle">React Three Fiber</text>
<rect x="321" y="332" width="129" height="34" rx="17" fill="#5eead4" fill-opacity="0.14" stroke="#5eead4" stroke-opacity="0.65"/>
<text x="385.5" y="354" font-size="16" font-weight="500" fill="#f1f5f9" text-anchor="middle">MapLibre GL</text>
<rect x="460" y="332" width="91" height="34" rx="17" fill="#5eead4" fill-opacity="0.14" stroke="#5eead4" stroke-opacity="0.65"/>
<text x="505.5" y="354" font-size="16" font-weight="500" fill="#f1f5f9" text-anchor="middle">Arduino</text>
</svg>